<svg
  xmlns="http://www.w3.org/2000/svg"
  width="48"
  height="46"
  viewBox="0 0 48 46"
  fill="none"
>
  <defs>
    <linearGradient id="barSmall" x1="6" y1="17" x2="6" y2="39" gradientUnits="userSpaceOnUse">
      <stop stop-color="#A855F7"/>
      <stop offset="1" stop-color="#6D28D9"/>
    </linearGradient>

    <linearGradient id="barTall" x1="14" y1="10" x2="14" y2="39" gradientUnits="userSpaceOnUse">
      <stop stop-color="#9333EA"/>
      <stop offset="1" stop-color="#5B21B6"/>
    </linearGradient>

    <linearGradient id="bookmark" x1="28" y1="6" x2="35" y2="41" gradientUnits="userSpaceOnUse">
      <stop stop-color="#7C3AED"/>
      <stop offset="0.55" stop-color="#6D28D9"/>
      <stop offset="1" stop-color="#5B21B6"/>
    </linearGradient>

    <linearGradient id="play" x1="27" y1="15" x2="37" y2="29" gradientUnits="userSpaceOnUse">
      <stop stop-color="#D8B4FE"/>
      <stop offset="1" stop-color="#A855F7"/>
    </linearGradient>

    <filter id="glow" x="-30%" y="-30%" width="160%" height="160%">
      <feGaussianBlur stdDeviation="1.4" result="blur"/>
      <feColorMatrix
        in="blur"
        type="matrix"
        values="
          0 0 0 0 0.55
          0 0 0 0 0.20
          0 0 0 0 1
          0 0 0 0.55 0
        "
        result="purpleGlow"
      />
      <feMerge>
        <feMergeNode in="purpleGlow"/>
        <feMergeNode in="SourceGraphic"/>
      </feMerge>
    </filter>
  </defs>

  <g>
    <rect
      x="2.5"
      y="18"
      width="7"
      height="22"
      rx="1.6"
      fill="url(#barSmall)"
      stroke="#4C1D95"
      stroke-width="0.7"
    />

    <rect
      x="11"
      y="11"
      width="8"
      height="29"
      rx="1.7"
      fill="url(#barTall)"
      stroke="#4C1D95"
      stroke-width="0.7"
    />

    <path
      d="M22 6.5C22 4.84 23.34 3.5 25 3.5H43C44.66 3.5 46 4.84 46 6.5V39.2C46 40.6 44.47 41.47 43.27 40.76L34 35.25L24.73 40.76C23.53 41.47 22 40.6 22 39.2V6.5Z"
      fill="url(#bookmark)"
      stroke="#4C1D95"
      stroke-width="0.8"
      stroke-linejoin="round"
    />

    <path
      d="M29.2 15.1C29.2 14.04 30.35 13.38 31.27 13.91L40.1 19.02C41.02 19.55 41.02 20.88 40.1 21.41L31.27 26.52C30.35 27.05 29.2 26.39 29.2 25.33V15.1Z"
      fill="url(#play)"
      stroke="#F3E8FF"
      stroke-width="0.55"
      stroke-linejoin="round"
    />
  </g>
</svg>
